<svg width="539" height="197" viewBox="0 0 539 197" fill="none" xmlns="http://www.w3.org/2000/svg">
<path d="M229.848 59H345L334.36 98.4352H265.269L260.663 115.962H325.148L315.475 151.846H250.99L239.061 197H193L229.848 59Z" fill="#EEEEEE"/>
<path d="M355.889 59H402L365.111 197H319L355.889 59Z" fill="#EEEEEE"/>
<path d="M442.362 98.0201H402L412.366 59H539L528.451 98.0201H488.227L461.763 197H415.897L442.362 98.0201Z" fill="#EEEEEE"/>
<path d="M192.735 7.23183H182.94V3.96461C182.94 3.53555 182.856 3.11069 182.692 2.7143C182.528 2.3179 182.287 1.95772 181.984 1.65433C181.681 1.35094 181.321 1.11028 180.925 0.94609C180.529 0.781897 180.104 0.697388 179.676 0.697388H163.352C162.486 0.697388 161.655 1.04161 161.043 1.65433C160.431 2.26706 160.087 3.09808 160.087 3.96461V17.0335H35.9126V3.96461C35.9132 3.11726 35.5844 2.30285 34.9962 1.69327C34.4086 1.08369 33.6064 0.726606 32.7604 0.697388H16.4365C15.5707 0.697388 14.7399 1.04161 14.1281 1.65433C13.5156 2.26706 13.1717 3.09808 13.1717 3.96461V7.23183H3.26477C2.39904 7.23183 1.56822 7.57607 0.95635 8.18878C0.343922 8.8015 0 9.6325 0 10.499V43.2276C0 44.0941 0.343922 44.9251 0.95635 45.5378C1.56822 46.1506 2.39904 46.4948 3.26477 46.4948H13.0591V49.762C13.0591 50.1911 13.1436 50.6159 13.3074 51.0123C13.4717 51.4087 13.7121 51.7689 14.0155 52.0723C14.3183 52.3757 14.6786 52.6163 15.0743 52.7805C15.4706 52.9447 15.895 53.0292 16.3239 53.0292H32.7604C33.1893 53.0292 33.6137 52.9447 34.01 52.7805C34.4057 52.6163 34.766 52.3757 35.0688 52.0723C35.3722 51.7689 35.6126 51.4087 35.7764 51.0123C35.9407 50.6159 36.0252 50.1911 36.0252 49.762V36.6368H42.5547V79.167C37.3592 79.167 32.3771 81.2321 28.7036 84.9088C25.0296 88.585 22.966 93.5709 22.966 98.7703V99.052C18.0548 99.7989 13.6113 102.386 10.534 106.288C7.45608 110.19 5.97512 115.116 6.38997 120.07C6.80482 125.024 9.08509 129.634 12.7687 132.97C16.4522 136.304 21.2639 138.114 26.2308 138.033H72.1629V170.705C66.0916 170.72 60.2729 173.141 55.9797 177.437C51.6866 181.733 49.2678 187.556 49.2532 193.632C49.2532 194.499 49.5971 195.33 50.2095 195.942C50.8214 196.555 51.6522 196.9 52.5179 196.9H91.9205C92.7862 196.9 93.6165 196.555 94.2289 195.942C94.8413 195.33 95.1852 194.499 95.1852 193.632V138.033H101.715V193.632C101.715 194.499 102.059 195.33 102.671 195.942C103.283 196.555 104.114 196.9 104.98 196.9H144.382C145.248 196.9 146.078 196.555 146.691 195.942C147.303 195.33 147.647 194.499 147.647 193.632C147.632 187.556 145.214 181.733 140.92 177.437C136.627 173.141 130.809 170.72 124.737 170.705V138.033H170.5C175.467 138.114 180.279 136.304 183.963 132.97C187.646 129.634 189.926 125.024 190.341 120.07C190.756 115.116 189.275 110.19 186.197 106.288C183.12 102.386 178.676 99.7989 173.765 99.052V98.7703C173.765 93.5709 171.701 88.585 168.028 84.9088C164.354 81.2321 159.371 79.167 154.176 79.167V36.6368H160.706V49.762C160.706 50.1911 160.79 50.6159 160.954 51.0123C161.119 51.4087 161.359 51.7689 161.662 52.0723C161.965 52.3757 162.325 52.6163 162.721 52.7805C163.117 52.9447 163.542 53.0292 163.971 53.0292H180.295C180.724 53.0292 181.148 52.9447 181.544 52.7805C181.94 52.6163 182.3 52.3757 182.603 52.0723C182.907 51.7689 183.147 51.4087 183.311 51.0123C183.475 50.6159 183.56 50.1911 183.56 49.762V46.4948H193.354C194.109 46.349 194.788 45.9414 195.272 45.3438C195.756 44.7461 196.014 43.9967 195.999 43.2276V10.499C195.999 9.6325 195.656 8.8015 195.043 8.18878C194.431 7.57607 193.6 7.23183 192.735 7.23183ZM6.52956 40.1293V13.7663H13.0591V40.1293H6.52956ZM29.383 46.4948H19.5887V7.06283H29.383V46.4948ZM55.839 190.365C56.6006 186.615 58.6501 183.249 61.6318 180.851C64.6128 178.454 68.3386 177.176 72.1629 177.24H88.4868V190.365H55.839ZM88.2054 170.705H78.411V138.033H88.2054V170.705ZM140.16 190.365H107.794V177.24H124.118C127.894 177.242 131.553 178.55 134.476 180.941C137.4 183.333 139.408 186.662 140.16 190.365ZM117.645 170.705H107.794V138.033H117.588L117.645 170.705ZM166.673 98.7703C166.758 99.6508 166.758 100.537 166.673 101.418C166.578 101.9 166.59 102.396 166.706 102.872C166.823 103.349 167.042 103.795 167.348 104.178C167.676 104.556 168.083 104.858 168.54 105.063C168.997 105.267 169.493 105.369 169.994 105.361H170.388C173.711 105.579 176.826 107.054 179.102 109.486C181.378 111.919 182.644 115.126 182.644 118.458C182.644 121.79 181.378 124.998 179.102 127.43C176.826 129.862 173.711 131.337 170.388 131.555H26.1182C22.7955 131.337 19.6804 129.862 17.4041 127.43C15.1283 124.998 13.8618 121.79 13.8618 118.458C13.8618 115.126 15.1283 111.919 17.4041 109.486C19.6804 107.054 22.7955 105.579 26.1182 105.361H26.5123C27.0059 105.37 27.4951 105.268 27.9443 105.064C28.3935 104.86 28.792 104.558 29.11 104.18C29.4281 103.802 29.6583 103.358 29.7832 102.881C29.9082 102.403 29.9257 101.903 29.8333 101.418C29.6532 100.546 29.5592 99.6598 29.5519 98.7703C29.5519 95.3042 30.9276 91.9801 33.3768 89.5291C35.8259 87.0782 39.1475 85.7014 42.611 85.7014C45.4604 85.7296 48.2242 86.6782 50.4915 88.4053C51.0229 88.7664 51.6505 88.9591 52.2928 88.9591C52.9351 88.9591 53.5627 88.7664 54.0941 88.4053C54.6125 88.1085 55.0358 87.6702 55.315 87.1413C55.5936 86.6129 55.7169 86.0158 55.6701 85.4198C55.7146 81.9683 57.1157 78.673 59.571 76.2479C62.0258 73.8228 65.3362 72.463 68.7856 72.4636C70.8812 72.4748 72.9431 72.9931 74.7956 73.9744C76.6475 74.9551 78.236 76.369 79.4243 78.0967C79.8059 78.6087 80.3271 79.0002 80.9255 79.2233C81.5233 79.4464 82.1734 79.4926 82.7971 79.3563C83.4202 79.2194 83.9916 78.9056 84.4419 78.4527C84.8916 77.9992 85.2018 77.4258 85.3346 76.8011C85.8305 73.7524 87.3937 70.9798 89.7449 68.9789C92.0961 66.9774 95.0823 65.879 98.1686 65.879C101.255 65.879 104.241 66.9774 106.592 68.9789C108.944 70.9798 110.507 73.7524 111.003 76.8011C111.171 77.3638 111.485 77.8719 111.913 78.2741C112.341 78.6758 112.868 78.9569 113.44 79.0887C114.012 79.2199 114.609 79.198 115.17 79.0233C115.73 78.8493 116.235 78.5293 116.632 78.0967C118.188 75.7989 120.436 74.0566 123.048 73.1226C125.66 72.1887 128.502 72.1115 131.161 72.9024C133.821 73.6933 136.159 75.3105 137.837 77.521C139.516 79.7309 140.448 82.4184 140.498 85.1944C140.409 85.8338 140.511 86.4856 140.791 87.0669C141.072 87.6488 141.518 88.1338 142.074 88.4617C142.606 88.8227 143.233 89.0154 143.876 89.0154C144.518 89.0154 145.145 88.8227 145.677 88.4617C147.944 86.7345 150.708 85.7859 153.557 85.7578C157.021 85.7578 160.342 87.1345 162.792 89.5855C165.241 92.0365 166.616 95.3606 166.616 98.8266L166.673 98.7703ZM147.028 80.35C147.028 80.35 146.521 80.35 146.352 80.35C145.5 77.2348 143.894 74.3783 141.676 72.0321C139.458 69.6859 136.698 67.9221 133.637 66.8975C130.577 65.8728 127.311 65.6187 124.129 66.1573C120.947 66.6958 117.947 68.0106 115.393 69.985C113.756 66.778 111.265 64.0865 108.196 62.2067C105.127 60.327 101.598 59.3322 97.9997 59.3322C94.4011 59.3322 90.8729 60.327 87.8035 62.2067C84.734 64.0865 82.2438 66.778 80.6063 69.985C78.0373 68.0117 75.0213 66.7048 71.8258 66.1798C68.6302 65.6553 65.3547 65.9291 62.2909 66.9774C59.2265 68.0258 56.4689 69.8154 54.2629 72.1875C52.0569 74.5602 50.4713 77.4416 49.6472 80.5753H48.9717V36.6368H147.028V80.35ZM35.9126 30.1024V23.5679H160.087V30.1024H35.9126ZM176.636 46.4948H166.616V7.06283H176.411V46.4948H176.636ZM189.47 40.1293H182.94V13.7663H189.47V40.1293Z" fill="#E6007E"/>
<path d="M83.3082 102.038C86.0129 102.038 88.2054 99.8434 88.2054 97.1367C88.2054 94.43 86.0129 92.2359 83.3082 92.2359C80.6035 92.2359 78.411 94.43 78.411 97.1367C78.411 99.8434 80.6035 102.038 83.3082 102.038Z" fill="#E6007E"/>
<path d="M112.691 102.038C115.396 102.038 117.588 99.8434 117.588 97.1367C117.588 94.43 115.396 92.2359 112.691 92.2359C109.987 92.2359 107.794 94.43 107.794 97.1367C107.794 99.8434 109.987 102.038 112.691 102.038Z" fill="#E6007E"/>
<path d="M83.9274 112.796L79.3679 117.472C84.3889 122.242 91.0485 124.902 97.9715 124.902C104.895 124.902 111.555 122.242 116.575 117.472L112.072 112.796C108.275 116.406 103.237 118.419 97.9997 118.419C92.7625 118.419 87.7246 116.406 83.9274 112.796Z" fill="#E6007E"/>
<path d="M268.386 7.30345V14.2221H243.969V25.1462H267.227V32.3379H243.867V43.7172H268.864V50.6966H235V7.30345H268.386Z" fill="#EEEEEE"/>
<path d="M276.366 48.8759V41.5931C281.254 43.2115 286.779 44.0207 292.94 44.0207C300.42 44.0207 304.16 41.7954 304.16 37.3448C304.16 34.108 301.864 32.4897 297.271 32.4897H289.632C279.652 32.4897 274.661 28.4437 274.661 20.3517C274.661 11.4506 281.766 7 295.975 7C301.432 7 306.604 7.70805 311.492 9.12414V16.4069C306.604 14.7885 301.432 13.9793 295.975 13.9793C287.791 13.9793 283.698 16.1034 283.698 20.3517C283.698 23.5885 285.676 25.2069 289.632 25.2069H297.271C307.888 25.2069 313.197 29.2529 313.197 37.3448C313.197 46.4483 306.445 51 292.94 51C286.779 51 281.254 50.292 276.366 48.8759Z" fill="#EEEEEE"/>
<path d="M320.87 50.6966V7.30345H342.696C352.654 7.30345 357.633 11.3798 357.633 19.5324C357.633 28.3729 350.824 33.7237 337.205 35.5848L335.909 28.4234C344.094 27.1085 348.186 24.2257 348.186 19.7752C348.186 16.1743 346.163 14.3738 342.116 14.3738H329.907V50.6966H320.87Z" fill="#EEEEEE"/>
<path d="M397.021 7.30345V14.2221H372.604V25.1462H395.862V32.3379H372.501V43.7172H397.499V50.6966H363.635V7.30345H397.021Z" fill="#EEEEEE"/>
<path d="M405.854 50.6359V7.30345H428.02C437.978 7.30345 442.957 11.1775 442.957 18.9255C442.957 24.1651 439.081 28.5044 431.328 31.9434L446.777 50.6966H435.387L420.552 31.7917V28.12C429.191 26.8051 433.511 23.8211 433.511 19.1683C433.511 15.972 431.487 14.3738 427.441 14.3738H415.061V50.6359H405.854Z" fill="#EEEEEE"/>
<path d="M482.96 7.30345V14.2828H468.978V50.6966H459.94V14.2828H445.958V7.30345H482.96Z" fill="#EEEEEE"/>
<path d="M495.782 28.8786C495.782 38.9733 500.818 44.0207 510.89 44.0207C520.711 44.0207 525.622 38.9733 525.622 28.8786C525.622 18.9457 520.711 13.9793 510.89 13.9793C500.818 13.9793 495.782 18.9457 495.782 28.8786ZM486.404 29.0607C486.404 14.3536 494.566 7 510.89 7C526.963 7 535 14.3536 535 29.0607C535 43.6869 526.963 51 510.89 51C495.293 51 487.131 43.6869 486.404 29.0607Z" fill="#EEEEEE"/>
</svg>
