<svg width="999" height="805" viewBox="0 0 999 805" fill="none" xmlns="http://www.w3.org/2000/svg">
<path d="M106.08 401.581V277.499H187.51V294.558H124.966V331.378H180.643V348.683H124.966V385.503H189.963V402.685L106.08 401.581Z" fill="#706F6F"/>
<path d="M245.272 336.409L237.546 346.718L236.319 345.736L233.744 344.386L229.942 343.159C228.543 342.775 227.101 342.569 225.65 342.545C223.653 342.571 221.686 343.031 219.886 343.895C218.947 344.365 218.174 345.11 217.67 346.031C217.165 346.952 216.955 348.006 217.065 349.05C217.022 350.05 217.209 351.046 217.614 351.962C218.018 352.877 218.627 353.687 219.395 354.328C221.098 355.809 222.996 357.048 225.037 358.01L232.517 361.446C235.175 362.519 237.688 363.921 239.998 365.619C242.272 367.264 244.191 369.351 245.64 371.756C247.314 374.569 248.124 377.813 247.97 381.083C248.043 384.029 247.504 386.958 246.385 389.684C245.266 392.41 243.592 394.872 241.47 396.916C236.479 401.311 229.957 403.56 223.32 403.175C218.881 403.189 214.477 402.399 210.32 400.843C206.324 399.525 202.735 397.2 199.896 394.093C200.882 393.149 201.784 392.123 202.594 391.024L205.537 387.465C206.265 386.485 207.043 385.543 207.867 384.642C208.521 383.906 208.889 383.538 208.971 383.538L210.32 384.52C211.392 385.19 212.497 385.804 213.631 386.361L218.169 388.079C219.843 388.564 221.577 388.812 223.32 388.815C225.849 388.871 228.333 388.142 230.433 386.729C231.325 386.116 232.05 385.29 232.543 384.326C233.036 383.361 233.28 382.289 233.253 381.206C233.299 380.276 233.11 379.35 232.703 378.513C232.295 377.676 231.683 376.956 230.923 376.419C229.176 375.068 227.284 373.916 225.282 372.983C222.952 372.001 220.499 370.896 217.678 369.915C215.003 368.826 212.487 367.381 210.197 365.619C207.879 363.888 205.921 361.72 204.434 359.237C202.79 356.144 201.986 352.674 202.103 349.173C201.99 345.804 202.751 342.464 204.311 339.477C205.593 336.961 207.44 334.777 209.707 333.095C211.949 331.411 214.486 330.162 217.188 329.413C219.744 328.702 222.383 328.331 225.037 328.308C228.686 328.392 232.294 329.098 235.706 330.395C239.319 331.627 242.594 333.686 245.272 336.409Z" fill="#706F6F"/>
<path d="M340.195 365.986C340.196 370.939 339.281 375.849 337.497 380.469C335.803 385.054 333.172 389.234 329.771 392.742C326.277 396.16 322.096 398.796 317.507 400.474C312.72 402.422 307.589 403.382 302.423 403.297C299.66 403.334 296.902 403.046 294.206 402.438C291.743 401.858 289.356 400.993 287.093 399.86C285.118 398.831 283.231 397.64 281.452 396.301C280.033 395.176 278.828 393.804 277.895 392.251C277.839 392.822 277.839 393.398 277.895 393.969V436.066H263.669V330.026H277.895C277.895 331.376 277.895 333.094 277.895 335.058C278.007 336.856 278.007 338.66 277.895 340.458C279.012 338.974 280.242 337.579 281.574 336.285C283.268 334.782 285.118 333.466 287.093 332.358C289.332 331.083 291.722 330.094 294.206 329.412C297.025 328.542 299.964 328.128 302.913 328.185C308.385 328.191 313.802 329.276 318.856 331.376C323.263 333.079 327.259 335.699 330.578 339.063C333.897 342.427 336.464 346.459 338.11 350.89C339.65 355.769 340.355 360.873 340.195 365.986ZM324.252 365.986C324.282 362.897 323.784 359.826 322.78 356.904C321.753 354.209 320.258 351.716 318.365 349.54C316.354 347.466 313.931 345.836 311.253 344.754C308.355 343.484 305.217 342.856 302.055 342.913C298.775 342.88 295.523 343.506 292.489 344.754C289.753 345.863 287.255 347.488 285.131 349.54C283.043 351.661 281.379 354.16 280.225 356.904C278.981 359.769 278.354 362.863 278.386 365.986C278.355 369.076 278.936 372.142 280.093 375.006C281.251 377.871 282.963 380.478 285.131 382.678C287.223 384.769 289.73 386.4 292.489 387.465C295.523 388.712 298.775 389.338 302.055 389.305C305.217 389.362 308.355 388.734 311.253 387.465C313.961 386.381 316.391 384.703 318.365 382.555C320.258 380.379 321.753 377.887 322.78 375.191C323.826 372.111 324.324 368.871 324.252 365.618V365.986Z" fill="#706F6F"/>
<path d="M416.966 392.743C413.363 395.928 409.206 398.424 404.702 400.107C399.879 401.913 394.768 402.828 389.618 402.807C384.524 402.84 379.475 401.838 374.779 399.861C370.208 397.977 366.044 395.226 362.515 391.761C358.987 388.283 356.23 384.101 354.421 379.488C352.353 374.943 351.306 369.999 351.355 365.005C351.304 359.972 352.35 354.987 354.421 350.4C356.304 345.826 359.053 341.658 362.515 338.127C366.07 334.694 370.227 331.948 374.779 330.027C379.347 328.053 384.275 327.05 389.25 327.081C396.91 326.961 404.371 329.522 410.344 334.322C416.404 339.341 420.913 345.981 423.343 353.468L411.08 358.009L396.854 363.778L382.137 369.669L367.911 376.174C369.873 379.967 372.79 383.182 376.373 385.501C380.049 387.795 384.305 388.988 388.637 388.938C391.826 388.977 394.992 388.393 397.957 387.22C400.823 386.267 403.456 384.719 405.684 382.679L416.966 392.743ZM404.702 350.646C403.409 347.751 401.095 345.435 398.203 344.141C395.368 342.785 392.269 342.073 389.127 342.054C386.007 342.023 382.914 342.65 380.052 343.895C377.303 345.146 374.809 346.893 372.694 349.05C370.647 351.132 369.023 353.591 367.911 356.291C366.708 358.909 366.081 361.755 366.072 364.637C365.989 365.042 365.989 365.459 366.072 365.864L375.76 362.06L386.184 357.764L396.118 353.591L404.702 350.646Z" fill="#706F6F"/>
<path d="M474.727 346.964C471.613 346.974 468.516 347.428 465.53 348.314C462.664 349.089 459.963 350.378 457.558 352.118C455.242 353.816 453.317 355.992 451.917 358.5C450.552 361.242 449.879 364.275 449.955 367.337V401.579H435.361V330.027H447.625C447.625 333.586 447.625 336.777 447.625 339.722C447.625 342.668 447.625 345.491 447.625 348.314C449.132 345.237 451.119 342.419 453.511 339.968C455.795 337.51 458.393 335.364 461.237 333.586C463.754 332.008 466.425 330.692 469.209 329.658C471.437 328.771 473.802 328.273 476.199 328.186L474.727 346.964Z" fill="#706F6F"/>
<path d="M494.718 298.485H509.311V330.273H528.443V343.651H509.311V401.949H494.718V343.651H481.841V330.273H494.718V298.485Z" fill="#706F6F"/>
<path d="M534.084 365.618C534.035 360.624 535.081 355.68 537.15 351.136C538.996 346.541 541.749 342.367 545.244 338.862C548.778 335.313 552.985 332.508 557.619 330.611C562.252 328.714 567.218 327.764 572.224 327.816C577.361 327.76 582.454 328.762 587.186 330.762C591.789 332.585 595.965 335.343 599.45 338.862C602.918 342.34 605.596 346.527 607.298 351.136C609.232 355.715 610.193 360.647 610.119 365.618C610.138 370.727 609.094 375.785 607.053 380.469C605.231 384.969 602.538 389.064 599.128 392.519C595.719 395.973 591.66 398.718 587.186 400.597C582.414 402.606 577.279 403.609 572.102 403.542C567.029 403.596 561.992 402.679 557.263 400.842C552.71 399.09 548.544 396.463 544.999 393.11C541.471 389.632 538.713 385.45 536.905 380.837C534.898 376.021 533.936 370.834 534.084 365.618ZM548.678 365.618C548.686 368.686 549.268 371.725 550.395 374.577C551.592 377.327 553.298 379.826 555.423 381.941C557.509 384.071 560.014 385.743 562.781 386.851C565.604 388.083 568.654 388.71 571.734 388.692C574.853 388.709 577.942 388.082 580.809 386.851C583.611 385.742 586.157 384.072 588.29 381.941C590.414 379.826 592.12 377.327 593.318 374.577C594.549 371.752 595.175 368.7 595.157 365.618C595.175 362.496 594.548 359.404 593.318 356.536C592.118 353.751 590.413 351.212 588.29 349.049C586.157 346.919 583.611 345.248 580.809 344.14C577.942 342.908 574.853 342.282 571.734 342.299C568.654 342.281 565.604 342.908 562.781 344.14C560.014 345.247 557.509 346.919 555.423 349.049C553.299 351.212 551.594 353.751 550.395 356.536C549.222 359.504 548.639 362.672 548.678 365.863V365.618Z" fill="#706F6F"/>
<path d="M98.1095 437.785H404.702L376.373 542.721H192.417L180.276 589.113H351.968L326.214 684.476H154.522L122.637 804.999H0L98.1095 437.785Z" fill="#706F6F"/>
<path d="M435.481 437.785H558.118L460.008 804.999H337.372L435.481 437.785Z" fill="#706F6F"/>
<path d="M665.062 541.739H557.141L584.857 437.785H923.458L895.251 541.739H787.698L716.937 804.999H594.3L665.062 541.739Z" fill="#706F6F"/>
<path d="M991.889 14.2369H970.55V7.11846C970.55 5.23053 969.8 3.41992 968.466 2.08495C967.133 0.749979 965.323 0 963.437 0L927.872 0C925.986 0 924.177 0.749979 922.843 2.08495C921.509 3.41992 920.759 5.23053 920.759 7.11846V35.5923H649.977V7.11846C649.978 5.2723 649.263 3.49792 647.981 2.16978C646.7 0.841651 644.953 0.0636605 643.109 0L607.545 0C605.745 0.124538 604.059 0.92915 602.829 2.25086C601.6 3.57258 600.918 5.31259 600.922 7.11846V14.2369H579.093C577.206 14.2369 575.397 14.9869 574.063 16.3219C572.729 17.6568 571.98 19.4675 571.98 21.3554V92.6628C571.98 94.5507 572.729 96.3613 574.063 97.6963C575.397 99.0312 577.206 99.7812 579.093 99.7812H600.922V106.9C600.922 107.834 601.106 108.76 601.464 109.624C601.821 110.487 602.345 111.272 603.006 111.933C603.666 112.594 604.45 113.119 605.313 113.476C606.176 113.834 607.101 114.018 608.035 114.018H643.6C645.356 113.835 646.982 113.005 648.16 111.69C649.339 110.374 649.987 108.667 649.977 106.9V78.3031H664.203V170.966C652.884 170.966 642.029 175.466 634.025 183.476C626.022 191.485 621.525 202.349 621.525 213.677V214.29C610.826 215.918 601.144 221.553 594.439 230.055C587.735 238.557 584.508 249.29 585.411 260.083C586.315 270.876 591.283 280.922 599.308 288.188C607.333 295.455 617.817 299.398 628.638 299.221H728.342V370.406C715.114 370.438 702.437 375.711 693.084 385.072C683.73 394.433 678.461 407.119 678.429 420.358C678.429 422.245 679.178 424.056 680.512 425.391C681.846 426.726 683.655 427.476 685.542 427.476H771.388C773.274 427.476 775.083 426.726 776.417 425.391C777.751 424.056 778.5 422.245 778.5 420.358V299.221H792.726V420.358C792.726 422.245 793.476 424.056 794.81 425.391C796.144 426.726 797.953 427.476 799.839 427.476H885.685C887.572 427.476 889.381 426.726 890.715 425.391C892.049 424.056 892.798 422.245 892.798 420.358C892.766 407.119 887.497 394.433 878.143 385.072C868.79 375.711 856.113 370.438 842.885 370.406V299.221H942.589C953.409 299.398 963.893 295.455 971.919 288.188C979.944 280.922 984.912 270.876 985.815 260.083C986.719 249.29 983.492 238.557 976.787 230.055C970.083 221.553 960.401 215.918 949.702 214.29V213.677C949.702 202.349 945.205 191.485 937.202 183.476C929.198 175.466 918.343 170.966 907.024 170.966V78.3031H921.25V106.9C921.25 107.834 921.434 108.76 921.791 109.624C922.149 110.487 922.673 111.272 923.333 111.933C923.994 112.594 924.778 113.119 925.641 113.476C926.504 113.834 927.429 114.018 928.363 114.018H963.927C964.861 114.018 965.786 113.834 966.649 113.476C967.512 113.119 968.297 112.594 968.957 111.933C969.618 111.272 970.141 110.487 970.499 109.624C970.856 108.76 971.04 107.834 971.04 106.9V99.7812H992.379C994.266 99.7812 996.075 99.0312 997.409 97.6963C998.743 96.3613 999.492 94.5507 999.492 92.6628V21.3554C999.494 20.3778 999.296 19.4102 998.908 18.5129C998.52 17.6156 997.952 16.8079 997.238 16.14C996.525 15.4722 995.682 14.9585 994.762 14.6311C993.841 14.3037 992.863 14.1695 991.889 14.2369ZM586.206 85.9125V28.4739H600.922V85.9125H586.206ZM635.996 100.149H614.658V14.2369H635.996V100.149ZM693.636 413.607C695.275 405.539 699.65 398.286 706.019 393.075C712.388 387.864 720.361 385.015 728.587 385.011H764.152V413.607H693.636ZM764.152 370.774H742.813V299.589H764.152V370.774ZM877.346 413.607H806.83V384.643H842.394C850.621 384.647 858.593 387.496 864.963 392.707C871.332 397.918 875.706 405.171 877.346 413.239V413.607ZM828.291 370.774H806.83V299.589H828.168L828.291 370.774ZM935.108 214.045C935.295 215.963 935.295 217.895 935.108 219.813C934.902 220.862 934.927 221.944 935.181 222.982C935.435 224.021 935.913 224.992 936.579 225.827C937.294 226.651 938.181 227.309 939.176 227.754C940.172 228.199 941.253 228.421 942.343 228.405H943.202C950.441 228.88 957.228 232.093 962.187 237.392C967.146 242.691 969.905 249.68 969.905 256.94C969.905 264.2 967.146 271.188 962.187 276.487C957.228 281.786 950.441 285 943.202 285.475H628.883C621.645 285 614.857 281.786 609.898 276.487C604.939 271.188 602.18 264.2 602.18 256.94C602.18 249.68 604.939 242.691 609.898 237.392C614.857 232.093 621.645 228.88 628.883 228.405H629.742C630.817 228.423 631.883 228.202 632.862 227.757C633.841 227.312 634.709 226.654 635.402 225.831C636.095 225.008 636.596 224.041 636.868 223C637.141 221.959 637.178 220.87 636.978 219.813C636.79 217.895 636.79 215.963 636.978 214.045C636.978 206.493 639.975 199.251 645.311 193.911C650.647 188.571 657.883 185.571 665.429 185.571C671.637 185.633 677.659 187.699 682.598 191.462C683.756 192.248 685.124 192.669 686.523 192.669C687.922 192.669 689.289 192.248 690.447 191.462C691.577 190.815 692.499 189.86 693.107 188.708C693.715 187.557 693.983 186.256 693.881 184.957C693.978 177.437 697.031 170.258 702.379 164.974C707.728 159.691 714.94 156.728 722.455 156.729C727.021 156.754 731.513 157.883 735.549 160.02C739.585 162.157 743.045 165.239 745.634 169.002C746.465 170.118 747.601 170.97 748.904 171.457C750.207 171.943 751.623 172.044 752.982 171.746C754.34 171.448 755.585 170.765 756.565 169.777C757.546 168.79 758.221 167.541 758.511 166.179C759.591 159.537 762.997 153.496 768.119 149.136C773.242 144.776 779.747 142.383 786.472 142.383C793.196 142.383 799.702 144.776 804.824 149.136C809.947 153.496 813.353 159.537 814.433 166.179C814.799 167.406 815.484 168.513 816.417 169.388C817.349 170.264 818.498 170.876 819.744 171.163C820.99 171.45 822.29 171.401 823.512 171.022C824.733 170.642 825.832 169.945 826.697 169.002C830.151 164.265 834.982 160.711 840.529 158.825C846.077 156.94 852.072 156.814 857.694 158.466C863.316 160.117 868.291 163.466 871.94 168.053C875.589 172.641 877.734 178.245 878.082 184.098C877.887 185.492 878.109 186.911 878.721 188.178C879.332 189.445 880.304 190.503 881.515 191.217C882.673 192.003 884.04 192.423 885.44 192.423C886.839 192.423 888.206 192.003 889.364 191.217C894.304 187.454 900.326 185.387 906.533 185.326C914.079 185.326 921.316 188.325 926.652 193.665C931.988 199.005 934.985 206.248 934.985 213.799L935.108 214.045ZM892.43 173.911H890.958C889.102 167.125 885.603 160.9 880.771 155.788C875.94 150.677 869.924 146.835 863.257 144.602C856.589 142.37 849.474 141.816 842.542 142.989C835.609 144.162 829.072 147.026 823.508 151.329C819.941 144.342 814.515 138.477 807.828 134.381C801.141 130.286 793.453 128.118 785.613 128.118C777.774 128.118 770.086 130.286 763.399 134.381C756.712 138.477 751.286 144.342 747.719 151.329C742.155 147.026 735.618 144.162 728.685 142.989C721.753 141.816 714.638 142.37 707.97 144.602C701.303 146.835 695.287 150.677 690.455 155.788C685.624 160.9 682.125 167.125 680.268 173.911H678.797V78.3031H892.308L892.43 173.911ZM649.977 64.0662V49.8292H920.759V64.0662H649.977ZM956.569 99.7812H934.985V13.8687H956.569V99.7812ZM984.776 85.9125H970.55V28.4739H984.776V85.9125Z" fill="#E6007E"/>
<path d="M753.479 220.795C759.371 220.795 764.148 216.015 764.148 210.117C764.148 204.22 759.371 199.44 753.479 199.44C747.586 199.44 742.81 204.22 742.81 210.117C742.81 216.015 747.586 220.795 753.479 220.795Z" fill="#E6007E"/>
<path d="M817.498 220.795C823.391 220.795 828.167 216.015 828.167 210.117C828.167 204.22 823.391 199.44 817.498 199.44C811.606 199.44 806.829 204.22 806.829 210.117C806.829 216.015 811.606 220.795 817.498 220.795Z" fill="#E6007E"/>
<path d="M754.832 244.236L744.899 254.423C755.838 264.817 770.346 270.612 785.43 270.612C800.514 270.612 815.023 264.817 825.962 254.423L816.151 244.236C807.878 252.101 796.903 256.486 785.492 256.486C774.081 256.486 763.106 252.101 754.832 244.236Z" fill="#E6007E"/>
</svg>
